G04 Layer_Physical_Order=1*
G04 Layer_Color=255*
%FSLAX25Y25*%
%MOIN*%
G70*
G01*
G75*
%ADD10R,0.03622X0.05433*%
%ADD11R,0.05807X0.01772*%
%ADD12C,0.01000*%
%ADD13C,0.00800*%
%ADD14C,0.01500*%
%ADD15C,0.06496*%
%ADD16R,0.06496X0.06496*%
%ADD17C,0.07000*%
%ADD18P,0.10824X8X202.5*%
%ADD19C,0.01000*%
D10*
X157760Y435000D02*
D03*
X150240D02*
D03*
X184760Y478974D02*
D03*
X177240D02*
D03*
D11*
X176567Y471516D02*
D03*
Y468957D02*
D03*
Y466398D02*
D03*
Y463839D02*
D03*
Y461280D02*
D03*
Y458720D02*
D03*
Y456161D02*
D03*
Y453602D02*
D03*
Y451043D02*
D03*
Y448484D02*
D03*
X153433D02*
D03*
Y451043D02*
D03*
Y453602D02*
D03*
Y456161D02*
D03*
Y458720D02*
D03*
Y461280D02*
D03*
Y463839D02*
D03*
Y466398D02*
D03*
Y468957D02*
D03*
Y471516D02*
D03*
D12*
X153272Y456000D02*
X153433Y455839D01*
X153390Y451000D02*
X153433Y450957D01*
X165688Y471516D02*
X173929Y479757D01*
X162000Y467828D02*
X165688Y471516D01*
X153433D02*
X165688D01*
X157760Y435000D02*
X163083D01*
X176567Y448484D01*
X153433Y456161D02*
Y458720D01*
Y453602D02*
Y455839D01*
Y451043D02*
Y453602D01*
Y448484D02*
Y450957D01*
X176567Y453602D02*
Y456161D01*
Y451043D02*
Y453602D01*
Y448484D02*
Y451043D01*
X428800Y499800D02*
X459800D01*
X415500Y486500D02*
X428800Y499800D01*
X406479Y486500D02*
X415500D01*
X396550Y476571D02*
X406479Y486500D01*
X381571Y476571D02*
X396550D01*
X231012Y464012D02*
X257000Y490000D01*
X363894Y458894D02*
X381571Y476571D01*
X176741Y458894D02*
X363894D01*
X176567Y458720D02*
X176741Y458894D01*
X375950Y486500D02*
X376500D01*
X373950Y488500D02*
X375950Y486500D01*
X366050Y488500D02*
X373950D01*
X361500Y483950D02*
X366050Y488500D01*
X361500Y481121D02*
Y483950D01*
X341659Y461280D02*
X361500Y481121D01*
X176567Y461280D02*
X341659D01*
X376500Y486500D02*
X389800Y499800D01*
X176567Y463839D02*
X176740Y464012D01*
X231012D01*
X257000Y490000D02*
X310000D01*
X319800Y499800D01*
X176567Y466398D02*
X176740Y466571D01*
X183399D01*
X216628Y499800D01*
X249800D01*
X151760Y441000D02*
X157760Y435000D01*
X151000Y441000D02*
X151760D01*
X136000Y446000D02*
X159000D01*
X128484Y448484D02*
X153433D01*
X125000Y435000D02*
X150240D01*
X176567Y478301D02*
X177240Y478974D01*
X176567Y471516D02*
Y478301D01*
Y468957D02*
X182957D01*
X184760Y470760D01*
Y478974D01*
X180543Y483190D02*
X184760Y478974D01*
X174808Y483190D02*
X180543D01*
X173929Y482312D02*
X174808Y483190D01*
X173929Y479757D02*
Y482312D01*
X162000Y453699D02*
Y467828D01*
X156958Y448657D02*
X162000Y453699D01*
X153606Y448657D02*
X156958D01*
X153433Y448484D02*
X153606Y448657D01*
X168516Y471516D02*
X176567D01*
X164000Y467000D02*
X168516Y471516D01*
X164000Y451000D02*
Y467000D01*
X159000Y446000D02*
X164000Y451000D01*
X125000Y435000D02*
X136000Y446000D01*
X125000Y445000D02*
X128484Y448484D01*
X153260Y469130D02*
X153433Y468957D01*
D13*
X125000Y464112D02*
X136000D01*
X148865Y461006D02*
X153159D01*
X142859Y455000D02*
X148865Y461006D01*
X125000Y455000D02*
X134000D01*
X138200D02*
X142859D01*
X138200D02*
Y457022D01*
X135400D02*
X138200D01*
X135400Y455000D02*
Y457022D01*
X134000Y455000D02*
X135400D01*
X149143Y466671D02*
X153160D01*
X140814Y475000D02*
X149143Y466671D01*
X125000Y475000D02*
X132907D01*
X137107D02*
X140814D01*
X137107D02*
Y476541D01*
X134307D02*
X137107D01*
X134307Y475000D02*
Y476541D01*
X132907Y475000D02*
X134307D01*
X142000Y464112D02*
X153160D01*
X140200D02*
X142000D01*
X140200D02*
Y467310D01*
X137400D02*
X140200D01*
X137400Y464112D02*
Y467310D01*
X136000Y464112D02*
X137400D01*
X149129Y469230D02*
X153160D01*
X133360Y485000D02*
X149129Y469230D01*
X125000Y485000D02*
X133360D01*
X153272Y456000D02*
X153433Y456161D01*
X153390Y451000D02*
X153433Y451043D01*
X153159Y461006D02*
X153433Y461280D01*
X153160Y464112D02*
X153433Y463839D01*
X125000Y464112D02*
Y465000D01*
X153160Y466671D02*
X153433Y466398D01*
X153160Y469230D02*
X153260Y469130D01*
D14*
X115000Y435000D02*
X125000D01*
X115000Y445000D02*
X125000D01*
D15*
Y435000D02*
D03*
X115000D02*
D03*
X125000Y445000D02*
D03*
X115000D02*
D03*
X125000Y455000D02*
D03*
X115000D02*
D03*
X125000Y465000D02*
D03*
X115000D02*
D03*
X125000Y475000D02*
D03*
X115000D02*
D03*
X125000Y485000D02*
D03*
D16*
X115000D02*
D03*
D17*
X250000Y417199D02*
D03*
X320000D02*
D03*
X390200D02*
D03*
X460000D02*
D03*
X459800Y499800D02*
D03*
X389800D02*
D03*
X319800D02*
D03*
X249800D02*
D03*
D18*
X269800Y436999D02*
D03*
X230200D02*
D03*
X269800Y397399D02*
D03*
X230200D02*
D03*
X339800Y436999D02*
D03*
X300200D02*
D03*
X339800Y397399D02*
D03*
X300200D02*
D03*
X410000Y436999D02*
D03*
X370400D02*
D03*
X410000Y397399D02*
D03*
X370400D02*
D03*
X479800Y436999D02*
D03*
X440200D02*
D03*
X479800Y397399D02*
D03*
X440200D02*
D03*
X440000Y480000D02*
D03*
X479600D02*
D03*
X440000Y519600D02*
D03*
X479600D02*
D03*
X370000Y480000D02*
D03*
X409600D02*
D03*
X370000Y519600D02*
D03*
X409600D02*
D03*
X300000Y480000D02*
D03*
X339600D02*
D03*
X300000Y519600D02*
D03*
X339600D02*
D03*
X230000Y480000D02*
D03*
X269600D02*
D03*
X230000Y519600D02*
D03*
X269600D02*
D03*
D19*
X151000Y441000D02*
D03*
M02*
