G04 Layer_Color=255*
%FSLAX25Y25*%
%MOIN*%
G70*
G01*
G75*
%ADD15C,0.06496*%
%ADD16R,0.06496X0.06496*%
%ADD17C,0.07000*%
%ADD18P,0.10824X8X202.5*%
D15*
X125000Y435000D02*
D03*
X115000D02*
D03*
X125000Y445000D02*
D03*
X115000D02*
D03*
X125000Y455000D02*
D03*
X115000D02*
D03*
X125000Y465000D02*
D03*
X115000D02*
D03*
X125000Y475000D02*
D03*
X115000D02*
D03*
X125000Y485000D02*
D03*
D16*
X115000D02*
D03*
D17*
X250000Y417199D02*
D03*
X320000D02*
D03*
X390200D02*
D03*
X460000D02*
D03*
X459800Y499800D02*
D03*
X389800D02*
D03*
X319800D02*
D03*
X249800D02*
D03*
D18*
X269800Y436999D02*
D03*
X230200D02*
D03*
X269800Y397399D02*
D03*
X230200D02*
D03*
X339800Y436999D02*
D03*
X300200D02*
D03*
X339800Y397399D02*
D03*
X300200D02*
D03*
X410000Y436999D02*
D03*
X370400D02*
D03*
X410000Y397399D02*
D03*
X370400D02*
D03*
X479800Y436999D02*
D03*
X440200D02*
D03*
X479800Y397399D02*
D03*
X440200D02*
D03*
X440000Y480000D02*
D03*
X479600D02*
D03*
X440000Y519600D02*
D03*
X479600D02*
D03*
X370000Y480000D02*
D03*
X409600D02*
D03*
X370000Y519600D02*
D03*
X409600D02*
D03*
X300000Y480000D02*
D03*
X339600D02*
D03*
X300000Y519600D02*
D03*
X339600D02*
D03*
X230000Y480000D02*
D03*
X269600D02*
D03*
X230000Y519600D02*
D03*
X269600D02*
D03*
M02*
