M48
;Layer_Color=9474304
;FILE_FORMAT=2:5
INCH,TZ
;TYPE=PLATED
T1F00S00C0.00500
T2F00S00C0.04000
T3F00S00C0.04331
T4F00S00C0.07300
%
T01
X151000Y441000
T02
X250000Y417199
X320000
X390200
X460000
X459800Y499800
X389800
X319800
X249800
T03
X115000Y435000
X125000
Y445000
X115000
Y455000
X125000
Y465000
X115000
Y475000
X125000
Y485000
X115000
T04
X230200Y397399
Y436999
X269800
X300200
Y397399
X269800
X339800
X370400
Y436999
X339800
X410000
X440200
Y397399
X410000
X479800
Y436999
X479600Y480000
Y519600
X440000
X409600
Y480000
X440000
X370000
X339600
Y519600
X370000
X300000
X269600
Y480000
X300000
X230000
Y519600
M30
