G04 Layer_Color=8388736*
%FSLAX25Y25*%
%MOIN*%
G70*
G01*
G75*
%ADD21R,0.04422X0.06233*%
%ADD22R,0.06607X0.02572*%
%ADD23C,0.07296*%
%ADD24R,0.07296X0.07296*%
%ADD25C,0.07800*%
%ADD26P,0.11690X8X202.5*%
%ADD27C,0.01800*%
D21*
X157760Y435000D02*
D03*
X150240D02*
D03*
X184760Y478974D02*
D03*
X177240D02*
D03*
D22*
X176567Y471516D02*
D03*
Y468957D02*
D03*
Y466398D02*
D03*
Y463839D02*
D03*
Y461280D02*
D03*
Y458720D02*
D03*
Y456161D02*
D03*
Y453602D02*
D03*
Y451043D02*
D03*
Y448484D02*
D03*
X153433D02*
D03*
Y451043D02*
D03*
Y453602D02*
D03*
Y456161D02*
D03*
Y458720D02*
D03*
Y461280D02*
D03*
Y463839D02*
D03*
Y466398D02*
D03*
Y468957D02*
D03*
Y471516D02*
D03*
D23*
X125000Y435000D02*
D03*
X115000D02*
D03*
X125000Y445000D02*
D03*
X115000D02*
D03*
X125000Y455000D02*
D03*
X115000D02*
D03*
X125000Y465000D02*
D03*
X115000D02*
D03*
X125000Y475000D02*
D03*
X115000D02*
D03*
X125000Y485000D02*
D03*
D24*
X115000D02*
D03*
D25*
X250000Y417199D02*
D03*
X320000D02*
D03*
X390200D02*
D03*
X460000D02*
D03*
X459800Y499800D02*
D03*
X389800D02*
D03*
X319800D02*
D03*
X249800D02*
D03*
D26*
X269800Y436999D02*
D03*
X230200D02*
D03*
X269800Y397399D02*
D03*
X230200D02*
D03*
X339800Y436999D02*
D03*
X300200D02*
D03*
X339800Y397399D02*
D03*
X300200D02*
D03*
X410000Y436999D02*
D03*
X370400D02*
D03*
X410000Y397399D02*
D03*
X370400D02*
D03*
X479800Y436999D02*
D03*
X440200D02*
D03*
X479800Y397399D02*
D03*
X440200D02*
D03*
X440000Y480000D02*
D03*
X479600D02*
D03*
X440000Y519600D02*
D03*
X479600D02*
D03*
X370000Y480000D02*
D03*
X409600D02*
D03*
X370000Y519600D02*
D03*
X409600D02*
D03*
X300000Y480000D02*
D03*
X339600D02*
D03*
X300000Y519600D02*
D03*
X339600D02*
D03*
X230000Y480000D02*
D03*
X269600D02*
D03*
X230000Y519600D02*
D03*
X269600D02*
D03*
D27*
X151000Y441000D02*
D03*
M02*
